<?xml version="1.0" encoding="UTF-8"?>
<svg version="1.1" viewBox="0 0 4096 4096" xmlns="http://www.w3.org/2000/svg">
  <title>Rook</title>

  <path d="m2553.9 284.67q12.288-16.384 40.96-49.152t45.056-49.152q20.48-16.384 36.864-16.384 24.576 0 122.88 69.632 102.4 65.536 188.42 143.36 90.112 73.728 90.112 102.4-40.96 45.056-151.55 65.536 4.096 114.69 32.768 241.66 77.824-4.096 204.8 4.096 57.344-106.5 110.59-241.66 53.248-139.26 86.016-249.86 372.74 274.43 372.74 327.68 0 20.48-32.768 20.48h-69.632q-57.344 40.96-172.03 98.304-110.59 53.248-143.36 69.632 180.22 45.056 270.34 135.17 90.112 90.112 90.112 192.51 0 73.728-53.248 131.07-49.152 53.248-126.98 53.248-45.056 0-98.304-20.48-53.248-114.69-176.13-241.66-118.78-131.07-249.86-217.09 61.44 278.53 196.61 483.33 139.26 200.7 368.64 274.43 28.672 12.288 49.152 12.288 24.576 0 49.152-40.96 61.44-135.17 126.98-344.06l40.96 8.192-24.576 442.37q118.78 122.88 118.78 221.18 0 45.056-20.48 77.824-57.344 114.69-208.9 114.69-139.26 0-294.91-81.92-417.79-176.13-614.4-561.15t-245.76-946.18h-1384.4q-290.82 4.096-614.4 57.344l-110.59-204.8q225.28 24.576 544.77 32.768h1515.5zm4.096 1564.7q12.288-16.384 40.96-49.152t45.056-49.152q20.48-16.384 36.864-16.384 24.576 0 126.98 69.632t188.42 147.46q90.112 73.728 90.112 102.4-49.152 49.152-155.65 69.632 8.192 204.8 40.96 389.12 106.5 0 196.61 12.288 110.59-307.2 135.17-503.81 434.18 241.66 434.18 294.91 0 12.288-36.864 20.48l-69.632 8.192q-81.92 61.44-225.28 151.55l-90.112 57.344q196.61 53.248 290.82 155.65 98.304 102.4 98.304 208.9 0 77.824-49.152 135.17-49.152 53.248-126.98 53.248-45.056 0-102.4-24.576-57.344-118.78-180.22-253.95t-258.05-233.47q65.536 299.01 200.7 516.1 139.26 217.09 364.54 299.01 49.152 16.384 57.344 16.384 28.672 0 49.152-45.056 57.344-135.17 126.98-360.45l40.96 4.096-24.576 479.23q118.78 143.36 118.78 233.47 0 45.056-24.576 81.92-65.536 106.5-200.7 106.5-139.26 0-315.39-98.304-434.18-196.61-630.78-643.07t-237.57-1105.9h-348.16v708.61q8.192 507.9 32.768 962.56-28.672 53.248-155.65 110.59-122.88 61.44-237.57 61.44-65.536 0-102.4-24.576-32.768-24.576-32.768-57.344 16.384-241.66 28.672-466.94 12.288-229.38 16.384-598.02v-696.32h-405.5q-16.384 614.4-241.66 1093.6-225.28 475.14-823.3 749.57l-28.672-40.96q372.74-327.68 507.9-778.24 135.17-454.66 139.26-1024h-212.99q-172.03 4.096-368.64 57.344l-106.5-204.8q196.61 24.576 466.94 32.768h221.18v-655.36q-307.2 122.88-602.11 196.61l-20.48-49.152q204.8-114.69 421.89-286.72 172.03-126.98 319.49-286.72 147.46-163.84 225.28-311.3l507.9 331.78q0-188.42-16.384-307.2 319.49 77.824 438.27 122.88 122.88 40.96 122.88 73.728 0 12.288-28.672 32.768l-65.536 40.96v1097.7h303.1zm-1445.9-647.17q167.94 49.152 233.47 81.92 65.536 28.672 65.536 53.248t-36.864 45.056l-65.536 45.056v536.58h405.5v-1007.6q-40.96 20.48-98.304 20.48-20.48 0-86.016-8.192-151.55 106.5-417.79 233.47z" dominant-baseline="central" aria-label="飛"/>
</svg>
