<?xml version="1.0" encoding="UTF-8"?>
<svg version="1.1" viewBox="0 0 4096 4096" xml:space="preserve" xmlns="http://www.w3.org/2000/svg">
<title>Soldier</title>
<defs><clipPath id="soldier-clip"><circle cx="2048" cy="2048" r="1900"/></clipPath></defs>
<circle cx="2048" cy="2048" r="1900" fill="#ede0d1" stroke="#000" stroke-width="148"/>
<g clip-path="url(#soldier-clip)">
<path d="m1922.6 706.33q159.38 150 259.38 178.12 50 3.125 78.125-40.625 12.5-46.875 0-100-56.25-131.25-309.38-168.75-56.25-12.5-84.375 3.125-21.875 9.375-9.375 46.875 9.375 40.625 65.625 81.25zm-571.88 396.87q-115.62 12.5-37.5 71.875 140.62 87.5 309.38 53.125 490.62-68.75 1e3 -146.88 234.38-40.625 268.75-71.875 31.25-21.875 15.625-53.125-18.75-40.625-109.38-68.75-106.25-28.125-375 59.375-600 134.37-1071.9 156.25zm187.5 640.62q12.5 28.125 65.625 75 59.375 68.75 121.88 150 31.25 37.5 71.875 40.625 28.125 0 43.75-31.25 18.75-37.5 6.25-112.5-12.5-78.125-240.62-168.75-18.75-3.125-28.125-6.25 0-18.75 159.38-225 31.25-37.5-9.375-78.125-121.88-103.12-193.75-93.75-31.25 3.125-28.125 46.875 28.125 262.5-250 546.88-68.75 68.75-103.12 109.38-21.875 40.625 18.75 31.25 46.875-3.125 109.38-50 153.12-106.25 256.25-234.38zm437.5 615.62q0 1053.1 40.625 1128.1 3.125 9.375 12.5 21.875 18.75 21.875 43.75 15.625 56.25-28.125 75-231.25 21.875-181.25 18.75-362.5-3.125-134.38 9.375-587.5 168.75-9.375 1137.5-12.5 78.125 3.125 96.875-31.25 21.875-46.875-40.625-100-253.12-187.5-393.75-118.75-312.5 50-796.88 121.88 0-9.375 3.125-15.625 3.125-103.12 28.125-196.88 12.5-59.375-37.5-93.75-40.625-28.125-68.75-43.75 115.62-46.875 293.75-228.12 12.5 21.875 65.625 65.625 125 96.875 256.25 218.75 31.25 31.25 71.875 28.125 28.125 0 37.5-34.375 12.5-31.25-9.375-106.25-28.125-121.88-365.62-221.88-9.375-3.125-12.5 0 84.375-131.25 196.88-271.88 31.25-37.5-9.375-78.125-121.88-103.12-193.75-93.75-31.25 3.125-28.125 50 21.875 209.38-231.25 525-18.75 0-115.62 125-28.125-18.75-50-18.75-40.625-18.75-96.875 12.5-31.25 31.25-6.25 65.625 59.375 103.12 62.5 293.75 0 18.75 3.125 43.75-571.88 59.375-1246.9 131.25-78.125 3.125-21.875 75 115.62 115.62 268.75 84.375 506.25-131.25 1003.1-159.38z" dominant-baseline="central" aria-label="卒"/>
</g>
</svg>
