<?xml version="1.0" encoding="UTF-8"?>
<svg version="1.1" viewBox="0 0 4096 4096" xmlns="http://www.w3.org/2000/svg">
  <title>Jeweled King</title>

  <g transform="rotate(180 2048 2048)">
    <path d="m2906.1 1830.9q16.384-24.576 53.248-73.728 36.864-53.248 61.44-77.824 24.576-28.672 40.96-28.672 24.576 0 143.36 90.112t221.18 188.42q106.5 98.304 106.5 126.98-16.384 65.536-106.5 65.536h-1155.1v1568.8h815.1l135.17-184.32q24.576-32.768 61.44-86.016 40.96-53.248 65.536-77.824t40.96-24.576q24.576 0 147.46 98.304 126.98 94.208 237.57 196.61t110.59 131.07q-16.384 65.536-114.69 65.536h-2838.5q-290.82 4.096-614.4 57.344l-106.5-208.9q225.28 24.576 544.77 32.768h1007.6v-1568.8h-446.46q-290.82 4.096-614.4 57.344l-106.5-204.8q225.28 24.576 544.77 32.768h622.59v-1294.3h-598.02q-290.82 4.096-614.4 57.344l-106.5-204.8q225.28 24.576 544.77 32.768h1925.1l131.07-184.32q8.192-12.288 20.48-28.672 16.384-20.48 28.672-40.96 12.288-16.384 49.152-65.536 40.96-49.152 61.44-49.152 24.576 0 147.46 94.208 126.98 94.208 237.57 196.61 110.59 98.304 110.59 126.98-16.384 65.536-114.69 65.536h-1314.8v1294.3h512zm-368.64 491.52q425.98 81.92 626.69 266.24 204.8 180.22 204.8 376.83 0 122.88-73.728 204.8-69.632 81.92-176.13 81.92-102.4 0-204.8-77.824-24.576-204.8-143.36-425.98-114.69-225.28-266.24-401.41z" dominant-baseline="central" aria-label="玉"/>
  </g>
</svg>
